# Blender v2.79 (sub 0) OBJ File: 'factory.blend'
# www.blender.org
o Cube_Cube.001
v -1.000000 -0.635989 1.932716
v -0.669048 0.635989 1.293079
v -1.000000 -0.635989 -1.932716
v -0.669048 0.635989 -1.293079
v 1.000000 -0.635989 1.932716
v 0.669048 0.635989 1.293079
v 1.000000 -0.635989 -1.932716
v 0.669048 0.635989 -1.293079
v -1.000000 -0.635989 -0.966358
v -1.000000 -0.635989 0.644582
v -1.000000 -0.635989 1.294361
v -0.669048 0.635989 0.974542
v -0.669048 0.635989 0.644582
v -0.669048 0.635989 -0.646539
v 1.000000 -0.635989 1.294361
v 1.000000 -0.635989 0.644582
v 1.000000 -0.635989 -0.966358
v 0.669048 0.635989 -0.646539
v 0.669048 0.635989 0.644582
v 0.669048 0.635989 0.974542
v 0.500000 -0.635989 -1.932716
v 0.000000 -0.635989 -1.932716
v -0.500000 -0.635989 -1.932716
v -0.334524 0.635989 -1.293079
v 0.000000 0.635989 -1.293079
v 0.334524 0.635989 -1.293079
v -0.500000 -0.635989 1.932716
v 0.000000 -0.635989 1.932716
v 0.500000 -0.635989 1.932716
v 0.334524 0.635989 1.293079
v 0.000000 0.635989 1.293079
v -0.334524 0.635989 1.293079
v -0.334524 0.635989 -0.646539
v 0.000000 0.635989 -0.646539
v 0.334524 0.635989 -0.646539
v -0.334524 0.635989 0.644582
v 0.000000 0.635989 0.644582
v 0.334524 0.635989 0.644582
v -0.334524 0.635989 0.974542
v 0.000000 0.635989 0.974542
v 0.334524 0.635989 0.974542
v 0.500000 -0.635989 -0.966358
v 0.000000 -0.635989 -0.966358
v -0.500000 -0.635989 -0.966358
v 0.500000 -0.635989 0.644582
v 0.000000 -0.635989 0.644582
v -0.500000 -0.635989 0.644582
v 0.500000 -0.635989 1.294361
v 0.000000 -0.635989 1.294361
v -0.500000 -0.635989 1.294361
v -0.334524 1.723034 0.644582
v 0.000000 1.723034 0.644582
v -0.334524 1.723034 0.974542
v 0.000000 1.723034 0.974542
v -1.000000 -0.635989 0.644582
v -0.669048 0.635989 0.644582
v 1.000000 -0.635989 0.644582
v 0.669048 0.635989 0.644582
v -0.334524 0.635989 0.644582
v 0.000000 0.635989 0.644582
v 0.334524 0.635989 0.644582
v 0.500000 -0.635989 0.644582
v 0.000000 -0.635989 0.644582
v -0.500000 -0.635989 0.644582
v -0.334524 1.723034 0.644582
v 0.000000 1.723034 0.644582
v -1.000000 -0.635989 0.644582
v -0.669048 0.635989 0.644582
v 1.000000 -0.635989 0.644582
v 0.669048 0.635989 0.644582
v -0.334524 0.635989 0.644582
v 0.000000 0.635989 0.644582
v 0.334524 0.635989 0.644582
v 0.500000 -0.635989 0.644582
v 0.000000 -0.635989 0.644582
v -0.500000 -0.635989 0.644582
v -0.334524 1.723034 0.644582
v 0.000000 1.723034 0.644582
vn -0.9678 0.2518 0.0000
vn 0.0000 0.4493 -0.8934
vn 0.9678 0.2518 0.0000
vn 0.0000 0.4493 0.8934
vn 0.0000 -1.0000 0.0000
vn 0.0000 1.0000 0.0000
vn 0.0000 0.0000 1.0000
vn -1.0000 0.0000 0.0000
vn 1.0000 0.0000 0.0000
vn 0.0000 0.0000 -1.0000
s off
f 9//1 4//1 3//1
f 21//2 8//2 7//2
f 15//3 6//3 5//3
f 27//4 2//4 1//4
f 15//5 29//5 48//5
f 12//6 32//6 39//6
f 4//6 33//6 24//6
f 14//6 36//6 33//6
f 13//6 39//6 36//6
f 7//5 42//5 21//5
f 17//5 45//5 42//5
f 16//5 48//5 45//5
f 8//3 17//3 7//3
f 18//3 16//3 17//3
f 16//3 20//3 15//3
f 2//1 11//1 1//1
f 12//1 10//1 11//1
f 10//1 14//1 9//1
f 47//5 11//5 10//5
f 46//5 50//5 47//5
f 45//5 49//5 46//5
f 44//5 10//5 9//5
f 43//5 47//5 44//5
f 42//5 46//5 43//5
f 23//5 9//5 3//5
f 22//5 44//5 23//5
f 21//5 43//5 22//5
f 38//6 20//6 19//6
f 37//6 41//6 38//6
f 40//7 53//7 39//7
f 35//6 19//6 18//6
f 34//6 38//6 35//6
f 33//6 37//6 34//6
f 26//6 18//6 8//6
f 25//6 35//6 26//6
f 24//6 34//6 25//6
f 41//6 6//6 20//6
f 40//6 30//6 41//6
f 39//6 31//6 40//6
f 50//5 1//5 11//5
f 49//5 27//5 50//5
f 48//5 28//5 49//5
f 6//4 29//4 5//4
f 30//4 28//4 29//4
f 28//4 32//4 27//4
f 4//2 23//2 3//2
f 24//2 22//2 23//2
f 22//2 26//2 21//2
f 51//6 54//6 52//6
f 39//8 51//8 36//8
f 37//9 54//9 40//9
f 19//7 61//7 58//7
f 71//10 78//10 72//10
f 47//7 63//7 64//7
f 13//7 55//7 56//7
f 36//7 65//7 59//7
f 10//7 64//7 55//7
f 36//7 56//7 59//7
f 52//7 60//7 66//7
f 51//7 66//7 65//7
f 37//7 59//7 60//7
f 45//7 57//7 62//7
f 38//7 60//7 61//7
f 19//7 57//7 58//7
f 45//7 63//7 62//7
f 9//1 14//1 4//1
f 21//2 26//2 8//2
f 15//3 20//3 6//3
f 27//4 32//4 2//4
f 15//5 5//5 29//5
f 12//6 2//6 32//6
f 4//6 14//6 33//6
f 14//6 13//6 36//6
f 13//6 12//6 39//6
f 7//5 17//5 42//5
f 17//5 16//5 45//5
f 16//5 15//5 48//5
f 8//3 18//3 17//3
f 18//3 19//3 16//3
f 16//3 19//3 20//3
f 2//1 12//1 11//1
f 12//1 13//1 10//1
f 10//1 13//1 14//1
f 47//5 50//5 11//5
f 46//5 49//5 50//5
f 45//5 48//5 49//5
f 44//5 47//5 10//5
f 43//5 46//5 47//5
f 42//5 45//5 46//5
f 23//5 44//5 9//5
f 22//5 43//5 44//5
f 21//5 42//5 43//5
f 38//6 41//6 20//6
f 37//6 40//6 41//6
f 40//7 54//7 53//7
f 35//6 38//6 19//6
f 34//6 37//6 38//6
f 33//6 36//6 37//6
f 26//6 35//6 18//6
f 25//6 34//6 35//6
f 24//6 33//6 34//6
f 41//6 30//6 6//6
f 40//6 31//6 30//6
f 39//6 32//6 31//6
f 50//5 27//5 1//5
f 49//5 28//5 27//5
f 48//5 29//5 28//5
f 6//4 30//4 29//4
f 30//4 31//4 28//4
f 28//4 31//4 32//4
f 4//2 24//2 23//2
f 24//2 25//2 22//2
f 22//2 25//2 26//2
f 51//6 53//6 54//6
f 39//8 53//8 51//8
f 37//9 52//9 54//9
f 19//7 38//7 61//7
f 71//10 77//10 78//10
f 47//7 46//7 63//7
f 13//7 10//7 55//7
f 36//7 51//7 65//7
f 10//7 47//7 64//7
f 36//7 13//7 56//7
f 52//7 37//7 60//7
f 51//7 52//7 66//7
f 37//7 36//7 59//7
f 45//7 16//7 57//7
f 38//7 37//7 60//7
f 19//7 16//7 57//7
f 45//7 46//7 63//7
